<svg width="27" height="32" viewBox="0 0 27 32" version="1.1" xmlns="http://www.w3.org/2000/svg" xmlns:xlink="http://www.w3.org/1999/xlink">
<title>Vector</title>
<desc>Created using Figma</desc>
<g id="Canvas" transform="translate(-1270 496)">
<g id="Vector">
<use xlink:href="#path0_fill" transform="translate(1270 -496)" fill="#FFC20E"/>
</g>
</g>
<defs>
<path id="path0_fill" d="M 24.2902 6.06093C 23.0864 4.06887 21.4098 2.54305 19.3462 1.52583C 17.3256 0.508609 15.09 0 12.6825 0C 11.2208 0 9.84505 0.211921 8.55531 0.635762C 7.26556 1.0596 6.10479 1.65298 5.11599 2.45828C 3.22436 3.89934 1.89163 5.63709 1.11778 7.58675C 0.386923 9.45166 0 11.2318 0 12.8424L 0 31.9576L 5.80385 31.9576L 5.80385 12.9695C 5.80385 11.6556 6.14778 10.4265 6.79266 9.23973C 7.48052 8.05298 8.34035 7.12053 9.45813 6.44238C 10.5329 5.76424 11.6507 5.46755 12.8974 5.46755L 13.0264 5.46755C 14.7031 5.46755 16.0788 5.84901 17.1536 6.69669C 18.3144 7.54437 19.0882 8.56159 19.6041 9.79073C 20.12 11.0623 20.378 12.2914 20.378 13.4781L 20.378 32L 26.1818 32L 26.1818 13.0967C 26.1818 11.7828 26.0099 10.5113 25.7089 9.36689C 25.408 8.18013 24.8921 7.07815 24.2902 6.06093Z"/>
</defs>
</svg>
